<svg width="260" height="260" viewBox="0 0 260 260" fill="none" xmlns="http://www.w3.org/2000/svg">
<path opacity="0.55" d="M137.471 244H95.3089C86.4749 244 79.2471 236.8 79.2471 228V96C79.2471 87.2 86.4749 80 95.3089 80H137.471C146.305 80 153.533 87.2 153.533 96V228C153.533 236.8 146.305 244 137.471 244Z" fill="white"/>
<path opacity="0.55" d="M193.185 148.4L175.216 130.5C167.687 123 167.687 110.9 175.216 103.4L193.185 85.5C200.714 78 212.861 78 220.39 85.5L238.359 103.4C245.888 110.9 245.888 123 238.359 130.5L220.39 148.4C212.861 155.9 200.614 155.9 193.185 148.4Z" fill="white"/>
<path opacity="0.85" d="M206.737 244C186.259 244 169.595 227.4 169.595 207C169.595 186.6 186.259 170 206.737 170C227.216 170 243.88 186.6 243.88 207C243.88 227.4 227.216 244 206.737 244Z" fill="white"/>
<path opacity="0.85" d="M15 228V32C15 23.2 22.2278 16 31.0618 16H47.1236C55.9575 16 63.1853 23.2 63.1853 32V228C63.1853 236.8 55.9575 244 47.1236 244H31.0618C22.2278 244 15 236.8 15 228Z" fill="white"/>
<path opacity="0.55" d="M63.1853 64H228.281C237.137 64 243.88 57 243.88 48.2V32.2C243.88 23.4 237.137 16 228.281 16H47.1235C55.9575 16 63.1853 23.2 63.1853 32V64Z" fill="white"/>
</svg>
