<svg width="259" height="260" viewBox="0 0 259 260" fill="none" xmlns="http://www.w3.org/2000/svg">
<path opacity="0.15" d="M243.062 260H15.9385C7.17231 260 0 252.8 0 244V16C0 7.2 7.17231 0 15.9385 0H243.062C251.828 0 259 7.2 259 16V244C259 252.8 251.828 260 243.062 260Z" fill="white"/>
<path opacity="0.55" d="M137 244H95C86.2 244 79 236.8 79 228V96C79 87.2 86.2 80 95 80H137C145.8 80 153 87.2 153 96V228C153 236.8 145.8 244 137 244Z" fill="white"/>
<path opacity="0.55" d="M192.5 148.4L174.6 130.5C167.1 123 167.1 110.9 174.6 103.4L192.5 85.5C200 78 212.1 78 219.6 85.5L237.5 103.4C245 110.9 245 123 237.5 130.5L219.6 148.4C212.1 155.9 199.9 155.9 192.5 148.4Z" fill="white"/>
<path opacity="0.85" d="M206 244C185.6 244 169 227.4 169 207C169 186.6 185.6 170 206 170C226.4 170 243 186.6 243 207C243 227.4 226.4 244 206 244Z" fill="white"/>
<path opacity="0.85" d="M15 228V32C15 23.2 22.2 16 31 16H47C55.8 16 63 23.2 63 32V228C63 236.8 55.8 244 47 244H31C22.2 244 15 236.8 15 228Z" fill="white"/>
<path opacity="0.55" d="M63 64H227.46C236.283 64 243 57 243 48.2V32.2C243 23.4 236.283 16 227.46 16H47C55.8 16 63 23.2 63 32V64Z" fill="white"/>
</svg>
